<svg xmlns="http://www.w3.org/2000/svg" viewBox="0 0 512 512"><path class="st0" d="M256 0C114.6 0 0 114.6 0 256s114.6 256 256 256 256-114.6 256-256S397.4 0 256 0zm146.7 368.4l-44.9.6s-9.6 1.9-22.3-6.8c-16.8-11.6-32.7-41.5-45-37.6-12.5 3.9-12.1 30.9-12.1 30.9s.1 5.7-2.8 8.8c-3.1 3.3-9.2 4-9.2 4h-20.1s-44.3 2.7-83.6-37.8c-42.6-44.3-80.2-132.3-80.2-132.3s-2.1-5.8.2-8.6c2.7-3.1 9.9-3.3 9.9-3.3l48-.3s4.5.7 7.8 3.1c2.7 1.9 4.2 5.6 4.2 5.6s7.7 19.6 18 37.4c20 34.6 29.4 42.2 36.2 38.5 10-5.4 7-49 7-49s.2-15.9-5-22.9c-4-5.4-11.6-7.1-14.9-7.5-2.7-.3 1.8-6.6 7.5-9.4 8.7-4.3 24-4.5 42-4.3 14.1.1 18.1 1 23.6 2.3 16.5 4 10.9 19.5 10.9 56.5 0 11.9-2.2 28.5 6.4 34.1 3.7 2.3 12.7.3 35.2-37.9 10.7-18.1 18.7-39.4 18.7-39.4s1.8-3.8 4.5-5.4c2.8-1.6 6.5-1.1 6.5-1.1l50.6-.3s15.1-1.9 17.6 5c2.6 7.2-5.6 24-26.3 51.5-33.9 45.2-37.6 41-9.5 67.1 26.9 24.9 32.5 37.1 33.4 38.6 11.2 18.5-12.3 19.9-12.3 19.9z"/></svg>