<svg version="1.1" id="Слой_1" xmlns="http://www.w3.org/2000/svg" xmlns:xlink="http://www.w3.org/1999/xlink" x="0px" y="0px" viewBox="0 0 51.3 49.3" style="enable-background:new 0 0 51.3 49.3;" xml:space="preserve">
	<g>
		<g>
			<path d="M14.9,13C14,9.8,12.3,5.8,11.2,2.3H3.3c0,0,0,0,0,0C2.1,2.5,1.2,3.5,1.2,4.8c0,1.4,1.1,2.5,2.5,2.5h4L18,37
			c4.5,0.3,15.3,0.1,20.9,0.1c6.6,0,5.9-3.8,8.2-12.7C48,21,49.3,16.5,49.9,13H14.9z M40.8,28.8c-0.3,1.4-0.5,3.1-1.3,3.3h-18
			L16.6,18h26.9L40.8,28.8z M39,39c-2.4,0-4.4,2-4.4,4.4s2,4.4,4.4,4.4s4.4-2,4.4-4.4S41.4,39,39,39z M22.4,39C20,39,18,41,18,43.4
			s2,4.4,4.4,4.4s4.4-2,4.4-4.4S24.8,39,22.4,39z" />
		</g>
	</g>
</svg>
